<svg xmlns="http://www.w3.org/2000/svg" xmlns:xlink="http://www.w3.org/1999/xlink" preserveAspectRatio="xMidYMid" width="100" height="100" viewBox="0 0 100 100">
  <defs>
    <style>
      .cls-1 {
        opacity: 0;
      }

      .cls-2 {
        fill: #d2bd7f;
        fill-rule: evenodd;
      }
    </style>
  </defs>
  <g>
    <rect width="100" height="100" class="cls-1"/>
    <path d="M81.573,77.606 L78.339,74.369 C88.384,67.531 94.993,56.001 94.993,42.912 C94.993,21.914 77.975,4.881 56.996,4.881 C43.899,4.881 32.358,11.496 25.527,21.591 L22.293,18.354 C29.973,7.471 42.666,0.370 56.996,0.370 C80.481,0.370 99.500,19.426 99.500,42.912 C99.500,57.235 92.426,69.919 81.573,77.606 ZM58.693,50.984 C58.693,52.380 57.562,53.513 56.167,53.513 L41.675,53.513 C40.281,53.513 39.149,52.380 39.149,50.984 C39.149,45.987 51.235,36.520 51.882,35.974 C52.529,35.225 52.873,34.295 52.873,33.303 C52.873,31.058 51.033,29.217 48.790,29.217 C46.546,29.217 44.707,31.058 44.707,33.303 C44.707,34.699 43.575,35.832 42.181,35.832 C40.786,35.832 39.654,34.699 39.654,33.303 C39.654,28.266 43.757,24.160 48.790,24.160 C53.822,24.160 57.925,28.266 57.925,33.303 C57.925,35.630 57.056,37.835 55.480,39.534 C55.399,39.615 55.318,39.696 55.237,39.777 C51.599,42.771 48.103,46.109 46.041,48.455 L56.167,48.455 C57.562,48.455 58.693,49.588 58.693,50.984 ZM74.842,53.877 C73.448,53.877 72.316,52.744 72.316,51.348 L72.316,48.091 L61.806,48.091 C60.876,48.091 60.007,47.565 59.563,46.736 C59.118,45.906 59.179,44.895 59.724,44.126 L72.761,25.252 C73.387,24.342 74.539,23.958 75.590,24.281 C76.641,24.605 77.369,25.596 77.369,26.689 L77.369,43.034 L80.259,43.034 C81.653,43.034 82.785,44.167 82.785,45.562 C82.785,46.958 81.653,48.091 80.259,48.091 L77.369,48.091 L77.369,51.348 C77.369,52.744 76.237,53.877 74.842,53.877 ZM72.316,34.800 L66.616,43.034 L72.316,43.034 L72.316,34.800 ZM29.953,42.427 C24.819,47.565 25.486,49.183 27.447,51.146 L48.891,72.447 C50.771,74.409 52.468,75.077 57.602,69.939 C60.593,67.269 65.222,67.572 68.051,70.404 L80.138,82.764 C82.967,85.596 83.270,90.148 80.683,93.142 C70.780,103.560 49.639,100.627 39.695,90.067 L10.166,60.512 C-0.849,50.296 -3.194,28.469 7.033,19.244 C10.024,16.655 14.572,16.958 17.402,19.790 L29.488,31.968 C32.318,34.800 32.621,39.433 29.953,42.427 Z" class="cls-2"/>
  </g>
</svg>
