<svg xmlns="http://www.w3.org/2000/svg" xmlns:xlink="http://www.w3.org/1999/xlink" preserveAspectRatio="xMidYMid" width="100" height="100" viewBox="0 0 100 100">
  <defs>
    <style>
      .cls-1 {
        opacity: 0;
      }

      .cls-2 {
        fill: #d2bd7f;
        fill-rule: evenodd;
      }
    </style>
  </defs>
  <g>
    <rect width="100" height="100" class="cls-1"/>
    <path d="M97.345,90.379 L92.761,54.397 C92.524,51.880 90.439,49.983 87.915,49.983 L83.760,49.983 L85.832,45.842 C86.083,45.339 86.056,44.742 85.761,44.263 C85.464,43.785 84.943,43.493 84.380,43.493 L83.460,43.493 C84.030,42.527 84.380,41.416 84.380,40.215 C84.380,36.567 81.296,33.616 77.686,33.728 C76.966,30.929 74.421,28.857 71.402,28.857 C70.321,28.857 69.264,29.134 68.324,29.645 C67.941,29.173 67.481,28.785 66.986,28.443 L76.960,23.963 C77.777,23.596 78.142,22.635 77.776,21.819 C71.403,7.628 55.035,1.037 40.689,6.549 L39.981,4.973 L41.240,4.410 C42.058,4.043 42.426,3.083 42.059,2.265 C41.694,1.447 40.741,1.077 39.916,1.446 L34.208,4.000 C33.390,4.365 33.024,5.325 33.389,6.143 C33.658,6.747 34.252,7.104 34.871,7.104 C35.092,7.104 35.317,7.058 35.533,6.963 L37.021,6.297 L37.730,7.878 C24.115,14.920 18.167,31.461 24.453,45.628 C24.476,45.700 24.492,45.774 24.526,45.842 L26.598,49.983 L22.443,49.983 C19.919,49.983 17.834,51.880 17.604,54.345 L16.092,66.210 L11.006,66.210 L8.102,51.296 C7.954,50.533 7.288,49.983 6.511,49.983 L3.266,49.983 C2.369,49.983 1.644,50.710 1.644,51.606 C1.644,52.503 2.369,53.228 3.266,53.228 L5.174,53.228 L8.078,68.144 C8.227,68.906 8.894,69.455 9.669,69.455 L15.678,69.455 L13.013,90.378 C12.954,90.839 13.097,91.305 13.405,91.656 C13.712,92.006 14.156,92.206 14.622,92.206 L18.165,92.206 C17.983,92.715 17.867,93.257 17.867,93.828 C17.867,96.512 20.050,98.696 22.733,98.696 C25.417,98.696 27.600,96.512 27.600,93.828 C27.600,93.257 27.483,92.715 27.302,92.206 L38.852,92.206 L40.582,64.520 C40.637,63.623 41.396,62.966 42.303,63.002 C43.195,63.057 43.875,63.828 43.820,64.723 L42.102,92.206 L53.557,92.206 L53.557,64.621 C53.557,63.724 54.282,62.998 55.179,62.998 C56.076,62.998 56.801,63.724 56.801,64.621 L56.801,92.206 L68.256,92.206 L66.538,64.723 C66.483,63.828 67.163,63.057 68.055,63.002 C68.918,62.964 69.721,63.623 69.776,64.520 L71.506,92.206 L83.056,92.206 C82.875,92.715 82.758,93.257 82.758,93.828 C82.758,96.512 84.941,98.696 87.625,98.696 C90.308,98.696 92.492,96.512 92.492,93.828 C92.492,93.257 92.375,92.715 92.193,92.206 L95.736,92.206 C96.202,92.206 96.646,92.006 96.953,91.656 C97.261,91.305 97.404,90.840 97.345,90.379 ZM62.379,30.512 L63.290,30.512 C64.663,30.512 65.851,31.334 66.319,32.608 C66.514,33.139 66.971,33.528 67.525,33.639 C68.070,33.755 68.650,33.566 69.032,33.150 C69.658,32.474 70.500,32.102 71.402,32.102 C73.191,32.102 74.646,33.557 74.645,35.305 C74.640,35.339 74.622,35.498 74.619,35.532 C74.578,36.081 74.817,36.614 75.256,36.947 C75.698,37.280 76.278,37.367 76.789,37.181 C77.180,37.038 77.539,36.970 77.891,36.970 C79.680,36.970 81.135,38.425 81.135,40.215 C81.135,42.005 79.680,43.461 77.891,43.461 L33.551,43.461 L62.379,30.512 ZM41.834,13.060 C42.648,12.692 43.610,13.059 43.979,13.876 C44.345,14.691 43.980,15.652 43.163,16.020 C35.437,19.491 30.866,27.481 31.784,35.909 C31.881,36.800 31.237,37.601 30.347,37.697 C30.287,37.703 30.228,37.707 30.170,37.707 C29.352,37.707 28.648,37.092 28.559,36.259 C27.487,26.431 32.822,17.107 41.834,13.060 ZM22.733,95.451 C21.838,95.451 21.111,94.724 21.111,93.829 C21.111,92.933 21.838,92.206 22.733,92.206 C23.629,92.206 24.356,92.933 24.356,93.829 C24.356,94.724 23.629,95.451 22.733,95.451 ZM30.832,64.822 L27.587,90.784 C27.540,91.161 27.357,91.482 27.105,91.730 C26.573,90.627 25.649,89.756 24.503,89.305 L27.613,64.420 C27.723,63.532 28.525,62.916 29.424,63.011 C30.313,63.122 30.944,63.933 30.832,64.822 ZM30.225,49.983 L28.603,46.738 L81.755,46.738 L80.133,49.983 L30.225,49.983 ZM83.253,91.730 C83.001,91.482 82.818,91.161 82.771,90.784 L79.526,64.822 C79.414,63.933 80.045,63.122 80.934,63.012 C81.826,62.916 82.634,63.532 82.745,64.420 L85.855,89.305 C84.709,89.756 83.785,90.627 83.253,91.730 ZM87.624,95.451 C86.729,95.451 86.002,94.724 86.002,93.829 C86.002,92.933 86.729,92.206 87.624,92.206 C88.520,92.206 89.247,92.933 89.247,93.829 C89.247,94.724 88.520,95.451 87.624,95.451 Z" class="cls-2"/>
  </g>
</svg>
