<svg xmlns="http://www.w3.org/2000/svg" xmlns:xlink="http://www.w3.org/1999/xlink" preserveAspectRatio="xMidYMid" width="100" height="100" viewBox="0 0 100 100">
  <defs>
    <style>
      .cls-1 {
        opacity: 0;
      }

      .cls-2 {
        fill: #d2bd7f;
        fill-rule: evenodd;
      }
    </style>
  </defs>
  <g>
    <rect width="100" height="100" class="cls-1"/>
    <path d="M97.689,83.176 C97.250,83.561 96.690,83.766 96.120,83.766 C95.918,83.766 95.715,83.740 95.515,83.688 C95.456,83.673 92.634,82.936 89.094,82.175 C91.210,83.288 92.658,85.504 92.658,88.055 C92.658,91.719 89.675,94.700 86.009,94.700 C83.182,94.700 80.768,92.925 79.808,90.434 L32.897,90.434 C31.937,92.925 29.523,94.700 26.697,94.700 C23.031,94.700 20.048,91.719 20.048,88.055 C20.048,85.230 21.824,82.818 24.316,81.858 L24.316,80.970 C19.742,81.772 17.446,83.312 17.416,83.333 C16.640,83.867 15.612,83.901 14.809,83.407 C14.006,82.914 13.561,81.999 13.689,81.065 L21.035,27.224 L8.814,12.806 L2.880,12.806 C1.565,12.806 0.500,11.741 0.500,10.427 C0.500,9.114 1.565,8.048 2.880,8.048 L9.918,8.048 C10.617,8.048 11.281,8.356 11.734,8.889 L24.640,24.116 L36.591,24.116 C37.738,15.530 44.999,8.720 54.120,7.698 L54.120,6.679 C54.120,5.365 55.185,4.300 56.500,4.300 C57.815,4.300 58.880,5.365 58.880,6.679 L58.880,7.698 C68.001,8.719 75.261,15.530 76.408,24.116 L84.610,24.116 C88.402,24.116 91.621,26.950 92.097,30.710 L98.480,81.088 C98.580,81.872 98.283,82.654 97.689,83.176 ZM86.009,89.942 C87.050,89.942 87.898,89.095 87.898,88.054 C87.898,87.014 87.052,86.168 86.011,86.167 C86.010,86.167 86.010,86.168 86.009,86.168 C86.009,86.168 86.008,86.167 86.008,86.167 C84.967,86.168 84.121,87.014 84.121,88.054 C84.121,89.095 84.968,89.942 86.009,89.942 ZM26.697,89.942 C27.738,89.942 28.585,89.095 28.585,88.054 C28.585,87.014 27.738,86.167 26.697,86.167 C25.655,86.167 24.808,87.014 24.808,88.054 C24.808,89.095 25.655,89.942 26.697,89.942 ZM30.072,31.949 C28.764,31.816 27.596,32.767 27.462,34.074 L23.640,71.483 C23.506,72.790 24.458,73.957 25.765,74.091 C25.847,74.099 25.929,74.104 26.010,74.104 C27.216,74.104 28.249,73.191 28.375,71.966 L32.198,34.557 C32.332,33.250 31.379,32.083 30.072,31.949 ZM35.988,51.360 C34.684,51.295 33.564,52.319 33.505,53.631 L32.709,71.620 C32.651,72.932 33.668,74.043 34.981,74.101 C35.018,74.103 35.053,74.103 35.089,74.103 C36.354,74.103 37.408,73.106 37.464,71.830 L38.261,53.842 C38.319,52.530 37.302,51.418 35.988,51.360 ZM56.500,12.317 C48.931,12.317 42.628,17.427 41.403,24.116 L71.597,24.116 C70.372,17.426 64.068,12.317 56.500,12.317 ZM66.758,81.884 C61.476,82.766 55.489,83.765 50.672,83.765 C46.199,83.765 43.171,82.919 40.242,82.101 C37.280,81.275 34.482,80.493 30.001,80.493 C29.683,80.493 29.383,80.504 29.077,80.512 L29.077,81.857 C30.829,82.532 32.222,83.924 32.897,85.676 L79.808,85.676 C80.483,83.925 81.878,82.532 83.629,81.857 L83.629,81.124 C81.394,80.755 79.255,80.493 77.647,80.493 C75.099,80.493 71.048,81.169 66.758,81.884 Z" class="cls-2"/>
  </g>
</svg>
