<svg xmlns="http://www.w3.org/2000/svg" xmlns:xlink="http://www.w3.org/1999/xlink" preserveAspectRatio="xMidYMid" width="100" height="100" viewBox="0 0 100 100">
  <defs>
    <style>
      .cls-1 {
        opacity: 0;
      }

      .cls-2 {
        fill: #d2bd7f;
        fill-rule: evenodd;
      }
    </style>
  </defs>
  <g>
    <rect width="100" height="100" class="cls-1"/>
    <path d="M96.087,83.489 L4.413,83.489 C2.107,83.489 0.250,81.677 0.250,79.428 L0.250,5.281 C0.250,3.031 2.107,1.220 4.413,1.220 L96.087,1.220 C98.393,1.220 100.250,3.031 100.250,5.281 L100.250,79.408 C100.250,81.657 98.393,83.489 96.087,83.489 ZM91.903,9.343 L8.577,9.343 L8.577,75.346 L91.903,75.346 L91.903,9.343 ZM46.230,30.567 L35.760,30.567 L35.760,57.785 L31.577,57.785 L31.577,30.567 L21.148,30.567 L21.148,26.924 L46.230,26.924 L46.230,30.567 ZM63.168,49.343 C63.821,51.135 64.393,52.827 64.821,54.400 C65.311,52.708 65.883,51.035 66.536,49.343 L75.087,26.924 L79.352,26.924 L66.964,57.785 L62.679,57.785 L50.413,26.924 L54.944,26.924 L63.168,49.343 ZM21.230,90.657 L77.862,90.657 C80.168,90.657 82.025,92.469 82.025,94.719 C82.025,96.969 80.168,98.780 77.862,98.780 L21.230,98.780 C18.924,98.780 17.066,96.969 17.066,94.719 C17.066,92.469 18.924,90.657 21.230,90.657 Z" class="cls-2"/>
  </g>
</svg>
