<svg xmlns="http://www.w3.org/2000/svg" xmlns:xlink="http://www.w3.org/1999/xlink" preserveAspectRatio="xMidYMid" width="100" height="100" viewBox="0 0 100 100">
  <defs>
    <style>
      .cls-1 {
        opacity: 0;
      }

      .cls-2 {
        fill: #d2bd7f;
        fill-rule: evenodd;
      }
    </style>
  </defs>
  <g>
    <rect width="100" height="100" class="cls-1"/>
    <path d="M97.201,91.141 C96.381,92.316 95.035,93.018 93.597,93.018 L5.412,93.018 C3.971,93.018 2.625,92.316 1.807,91.141 C0.987,89.964 0.799,88.466 1.304,87.125 L4.592,78.404 C5.232,76.700 6.867,75.573 8.697,75.573 L90.307,75.573 C92.134,75.573 93.770,76.700 94.412,78.404 L97.700,87.125 C98.205,88.466 98.019,89.964 97.201,91.141 ZM84.549,71.212 L14.400,71.212 C11.979,71.212 10.016,69.257 10.016,66.850 L10.016,12.333 C10.016,9.924 11.979,7.972 14.400,7.972 L84.551,7.972 C86.973,7.972 88.933,9.924 88.931,12.333 L88.931,66.850 C88.931,69.257 86.970,71.212 84.549,71.212 ZM82.358,15.784 C82.358,15.084 81.785,14.515 81.080,14.515 L17.869,14.515 C17.166,14.515 16.593,15.082 16.593,15.784 L16.593,63.397 C16.593,64.097 17.166,64.667 17.869,64.667 L81.080,64.667 C81.785,64.667 82.358,64.099 82.358,63.397 L82.358,15.784 ZM68.442,34.844 C67.969,35.317 67.227,35.394 66.661,35.033 C61.719,31.878 55.851,30.043 49.557,30.043 C43.263,30.043 37.393,31.878 32.453,35.033 C31.887,35.394 31.147,35.317 30.672,34.844 L29.569,33.747 C29.267,33.444 29.116,33.021 29.161,32.597 C29.205,32.170 29.440,31.788 29.797,31.554 C35.481,27.845 42.269,25.682 49.557,25.682 C56.847,25.682 63.635,27.845 69.317,31.554 C69.676,31.788 69.911,32.170 69.955,32.597 C69.999,33.021 69.849,33.444 69.545,33.747 L68.442,34.844 ZM49.555,33.286 C54.679,33.286 59.452,34.770 63.496,37.305 C63.864,37.534 64.107,37.919 64.155,38.347 C64.204,38.780 64.054,39.207 63.747,39.512 L62.655,40.601 C62.188,41.063 61.467,41.147 60.903,40.809 C57.592,38.804 53.707,37.650 49.555,37.650 C45.403,37.650 41.517,38.804 38.206,40.809 C37.644,41.147 36.922,41.065 36.455,40.601 L35.362,39.512 C35.056,39.207 34.906,38.778 34.954,38.347 C35.003,37.919 35.246,37.534 35.612,37.305 C39.658,34.770 44.431,33.286 49.555,33.286 ZM49.555,41.153 C52.428,41.153 55.089,42.070 57.269,43.610 C57.611,43.854 57.829,44.235 57.865,44.651 C57.899,45.069 57.749,45.479 57.451,45.773 L56.358,46.862 C55.875,47.341 55.118,47.415 54.552,47.034 C53.119,46.076 51.404,45.513 49.553,45.513 C47.702,45.513 45.986,46.076 44.556,47.034 C43.989,47.415 43.235,47.343 42.751,46.862 L41.659,45.775 C41.361,45.481 41.211,45.069 41.245,44.651 C41.278,44.233 41.498,43.854 41.841,43.610 C44.023,42.070 46.681,41.153 49.555,41.153 ZM49.739,49.138 C51.536,49.138 52.993,50.587 52.993,52.375 C52.993,54.163 51.536,55.612 49.739,55.612 C47.942,55.612 46.485,54.163 46.485,52.375 C46.485,50.587 47.942,49.138 49.739,49.138 Z" class="cls-2"/>
  </g>
</svg>
