<?xml version="1.0" encoding="utf-8"?>
<!-- Generator: Adobe Illustrator 19.1.1, SVG Export Plug-In . SVG Version: 6.00 Build 0)  -->
<svg version="1.1" id="Capa_1" xmlns="http://www.w3.org/2000/svg" xmlns:xlink="http://www.w3.org/1999/xlink" x="0px" y="0px"
	 viewBox="-55.4 572.4 20.4 25" style="enable-background:new -55.4 572.4 20.4 25;" xml:space="preserve">
<style type="text/css">
	.st0{fill:#D2BD7F;}
</style>
<path id="XMLID_128_" class="st0" d="M-35.2,586c0-0.5,0-0.8,0-1c0-1.4-0.4-9.6-0.4-10.5c0-0.7-0.1-1.2-0.5-1.6
	c-0.3-0.3-0.7-0.4-1.4-0.3c-1.1,0.1-3,0.3-4.7,0.5c-0.6,0.1-1.1,0.1-1.6,0.2c0,0,0,0,0,0c-0.7,0.1-1.2,0.1-1.4,0.1h-0.2
	c-0.3,0-1.6-0.2-3-0.3c-1.7-0.2-3.6-0.5-4.7-0.5c-0.5,0-1,0-1.4,0.3c-0.3,0.3-0.4,0.8-0.4,1.4c0,0.4-0.4,9.3-0.4,10.8
	c0,0.2,0,0.5,0,1c0,2.4-0.1,7.4,0.2,9.6c0.2,1.3,0.7,1.9,1.9,1.9c0.1,0,0.2,0,0.3,0c0.9-0.1,2.2-0.2,3.5-0.4c0,0,0,0,0,0
	c0.4,0,0.8-0.1,1.1-0.1c1.4-0.2,2.7-0.3,3-0.3h0.2c0.3,0,1.6,0.2,3,0.3c1.6,0.2,3.4,0.4,4.5,0.5c1.4,0.1,2-0.4,2.3-1.8
	C-35,593.4-35.1,588.4-35.2,586z M-36.2,595.5c-0.1,1-0.4,1.2-1.4,1.1c-1.1-0.1-2.9-0.3-4.5-0.5c-1.7-0.2-2.8-0.4-3.1-0.4h-0.2
	c-0.1,0-0.2,0-0.4,0c0.3-0.1,0.6-0.3,0.9-0.4c0.5-0.2,1-0.4,1.2-0.5c0.2,0,0.4-0.2,0.4-0.4c0-0.2-0.2-0.4-0.4-0.4
	c-0.3,0-0.6,0.2-1.5,0.5c-1.1,0.5-2.6,1.1-4.4,1.6c-1.3,0.2-2.6,0.3-3.4,0.4c-0.9,0.1-1.1-0.1-1.3-1.1c-0.3-2.1-0.2-7.2-0.2-9.4
	c0-0.5,0-0.8,0-1c0-1.5,0.4-10.3,0.4-10.7c0-0.3,0-0.7,0.2-0.8c0.1-0.1,0.2-0.1,0.5-0.1c0.1,0,0.2,0,0.3,0c1.1,0.1,3,0.3,4.7,0.5
	c0.8,0.1,1.5,0.2,2,0.3c-0.7,0.3-1.4,0.6-1.9,0.8c-0.5,0.2-1,0.4-1.1,0.5c-0.2,0-0.4,0.2-0.4,0.4c0,0.2,0.2,0.4,0.4,0.4
	c0.3,0,0.6-0.2,1.5-0.5c1-0.5,2.6-1.2,4.4-1.6c0.4-0.1,1-0.1,1.6-0.2c1.7-0.2,3.6-0.5,4.7-0.5c0.5,0,0.7,0,0.8,0.1
	c0.1,0.1,0.2,0.6,0.2,1v0c0.2,3.4,0.4,9.3,0.4,10.5c0,0.2,0,0.5,0,1C-36,588.2-35.9,593.3-36.2,595.5z M-41.7,580.6
	c-0.2-0.1-0.5-0.1-0.6,0.1c-0.1,0.2-0.1,0.5,0.1,0.6c0.5,0.3,1,0.7,1.3,1.2l-2.3,2.3v-4.8c0-0.2-0.2-0.4-0.4-0.4s-0.4,0.2-0.4,0.4
	v3.1c-0.2-0.3-0.5-0.6-0.8-0.8v-4.1c0-0.2-0.2-0.4-0.4-0.4s-0.4,0.2-0.4,0.4v4.1c-0.3,0.2-0.6,0.4-0.8,0.7v-3c0-0.2-0.2-0.4-0.4-0.4
	s-0.4,0.2-0.4,0.4v5.4c-0.4-0.1-0.9,0-1.4,0.2c-0.1,0-0.2,0.1-0.2,0.2c-0.4,0.8-0.2,1.8,0.4,2.5l0.9,0.9l-1.3,1.3
	c-1.3-1-2.1-2.6-2.1-4.4c0-1.9,1-3.7,2.6-4.7c0.2-0.1,0.3-0.4,0.1-0.6c-0.1-0.2-0.4-0.3-0.6-0.1c-1.9,1.2-3,3.2-3,5.4
	c0,2.1,1.1,4.1,2.7,5.2c0,0,0.1,0,0.1,0.1c1,0.7,2.3,1.2,3.7,1.2c3.6,0,6.5-2.9,6.5-6.5C-38.8,583.8-39.9,581.8-41.7,580.6z
	 M-46,584.1c0-0.5,0.3-1,0.8-1.2c0.5,0.2,0.7,0.7,0.7,1.2v1.7c0,0.1,0,0.2,0,0.3l-0.7,0.7l-0.7-0.7c0-0.1,0-0.2,0-0.3V584.1
	L-46,584.1z M-47.8,587.6c-0.4-0.4-0.5-0.9-0.3-1.4c0.5-0.2,1,0,1.4,0.3l0.1,0.1c0,0,0,0,0,0l0.8,0.8l-1.1,1.1L-47.8,587.6z
	 M-39.6,586c0,3.1-2.5,5.6-5.6,5.6c-1,0-2-0.3-2.8-0.8l1.2-1.2c0.4,0.3,1,0.4,1.6,0.4c0.8,0,1.5-0.2,1.9-0.7l1.2-1.2
	c0.5-0.5,0.7-1.2,0.6-1.9c0-0.2-0.3-0.4-0.5-0.3c-0.2,0-0.4,0.3-0.3,0.5c0.1,0.4-0.1,0.9-0.4,1.2l-1.2,1.2c-0.3,0.3-0.8,0.4-1.4,0.4
	c-0.4,0-0.7-0.1-1-0.2l5.8-5.8C-39.9,584-39.6,585-39.6,586z"/>
</svg>
