<?xml version="1.0" encoding="utf-8"?>
<!-- Generator: Adobe Illustrator 19.1.1, SVG Export Plug-In . SVG Version: 6.00 Build 0)  -->
<svg version="1.1" id="Group_1_1_" xmlns="http://www.w3.org/2000/svg" xmlns:xlink="http://www.w3.org/1999/xlink" x="0px" y="0px"
	 viewBox="0 0 25 25" style="enable-background:new 0 0 25 25;" xml:space="preserve">
<style type="text/css">
	.st0{fill:#D2BD7F;}
</style>
<g id="Shape_1">
	<g>
		<path class="st0" d="M8.1,17.1c1.2,1.2,3.1,1.2,4.3,0C11.2,15.9,9.3,15.9,8.1,17.1z M7.9,12.6c-1.2,1.2-1.2,3.1,0,4.3
			C9.1,15.7,9.1,13.8,7.9,12.6z M10,15.2c1.2,1.2,3.1,1.2,4.3,0C13.1,14,11.2,14,10,15.2z M9.8,10.6c-1.2,1.2-1.2,3.1,0,4.3
			C11,13.8,11,11.8,9.8,10.6z M13.6,11.4c1.7,0,3.1-1.4,3.1-3.1C14.9,8.4,13.6,9.7,13.6,11.4z M11.9,13.3c1.2,1.2,3.1,1.2,4.3,0
			C15.1,12.1,13.1,12.1,11.9,13.3z M11.7,8.7c-1.2,1.2-1.2,3.1,0,4.3C12.9,11.9,12.9,9.9,11.7,8.7z M19.3,5.6
			c-0.1-0.1-0.3-0.1-0.4,0l-1.7,1.7c-0.1,0.1-0.1,0.3,0,0.4c0.1,0.1,0.2,0.1,0.4,0L19.3,6C19.5,5.9,19.5,5.8,19.3,5.6z M18.5,10
			l-2,2c-0.1,0.1-0.1,0.3,0,0.4c0.1,0.1,0.2,0.1,0.4,0l2-2c0.1-0.1,0.1-0.3,0-0.4C18.8,9.9,18.6,9.9,18.5,10z M12.9,8.5l2-2
			c0.1-0.1,0.1-0.3,0-0.4c-0.1-0.1-0.3-0.1-0.4,0l-2,2c-0.1,0.1-0.1,0.3,0,0.4C12.6,8.5,12.8,8.6,12.9,8.5z M7.7,17.9
			c-0.1,0-0.2-0.1-0.4-0.3c-0.2-0.2-0.3-0.3-0.3-0.4c0.1-0.1,0-0.2,0-0.3c-0.1-0.1-0.3-0.1-0.4,0c-0.1,0.1-0.2,0.3-0.1,0.6
			c0,0.1,0.1,0.2,0.2,0.3L5.6,19c-0.1,0.1-0.1,0.3,0,0.4c0.1,0.1,0.1,0.1,0.2,0.1s0.1,0,0.2-0.1l1.2-1.2c0.1,0.1,0.2,0.1,0.3,0.2
			c0.3,0.2,0.6,0,0.6-0.1c0.1-0.1,0.1-0.3,0-0.4C8,17.9,7.8,17.9,7.7,17.9z"/>
	</g>
</g>
<g id="Rectangle_2">
	<g>
		<path class="st0" d="M21,4.1c-4.7-4.7-12.3-4.7-17,0s-4.7,12.3,0,17s12.3,4.7,17,0C25.7,16.4,25.7,8.8,21,4.1z M20.8,20.2
			l-5.3-5.3l-0.6,0.6l5.3,5.3c-4.4,4.1-11.3,4-15.6-0.3C0.3,16.2,0.2,9.4,4.3,5L9.3,10L10,9.4L4.9,4.3c4.4-4.1,11.3-4,15.6,0.3
			C24.7,8.9,24.8,15.8,20.8,20.2z"/>
	</g>
</g>
</svg>
