<svg xmlns="http://www.w3.org/2000/svg" xmlns:xlink="http://www.w3.org/1999/xlink" version="1.1" style="enable-background:new 0 0 146 74;" xml:space="preserve" width="146" height="74"><rect id="backgroundrect" width="100%" height="100%" x="0" y="0" fill="none" stroke="none"/>
<style type="text/css">
	.st0{enable-background:new    ;}
	.st1{fill-rule:evenodd;clip-rule:evenodd;fill:#151515;}
	.st2{fill:#D2BD7F;}
	.st3{fill-rule:evenodd;clip-rule:evenodd;fill:#D2BD7F;}
</style>



<g class="currentLayer"><title>Layer 1</title><g id="Rectangle_1_1_" class="st0">
	<g id="Rectangle_1">
		<g id="svg_1">
			<rect class="st1" width="146" height="66" id="svg_2"/>
		</g>
	</g>
</g><g id="Rectangle_2_1_" class="st0">
	<g id="Rectangle_2">
		<g id="svg_3">
			<path class="st2" d="M0,0v17h1V1h144v16h1V0H0z M145,65H1V49H0v17h146V49h-1V65z" id="svg_4"/>
		</g>
	</g>
</g><g id="Shape_1_1_" class="st0">
	<g id="Shape_1">
		<g id="svg_5">
			<polygon class="st3" points="68,65 73,74 78,65    " id="svg_6"/>
		</g>
	</g>
	<g id="svg_7">
		<path class="st3" d="M75.4,7.7C77.6,8.1,79.8,8.6,82,9c1.1,0.2,2.3,0,3.2-0.8c-0.7,1.2-1.7,1.9-3,1.9c-1.2,0-2.4-0.3-3.5-0.5    C77.2,9.4,75.8,9,74.4,9c-3.2,0-5.4,1.7-6.8,4.5c-0.7,1.3-0.5,2.5,0.4,3.1c0.8,0.6,2,0.3,2.9-0.8c1.1-1.2,1.8-2.6,1.4-4.4    c0.1,0,0.2,0,0.2,0c1,2.3-0.9,5.6-3.4,5.8c-1.4,0.1-2.3-0.9-2.2-2.3c0.1-1.7,1.1-3,2.2-4.1c1.5-1.5,3.2-2.5,5.3-2.8    c0.2,0,0.4-0.1,0.7-0.2C75.2,7.7,75.3,7.7,75.4,7.7z" id="svg_8"/>
		<path class="st3" d="M88.4,21.3c3,0.5,6.1,1.1,8.7,2.7c2.7,1.7,2.7,3.7-0.1,5.3c-2.7,1.5-5.6,2.4-8.6,2.9    c-11.8,2.1-23.6,2.2-35.3-0.6c-1.9-0.5-3.8-1.3-5.6-2c-0.6-0.3-1.2-0.7-1.8-1.2c-1.3-1.1-1.3-2.5-0.1-3.7c0.5-0.4,1-0.8,1.5-1.1    c2.6-1.4,5.4-2,8.3-2.5c0,0.1,0,0.1,0,0.2c-0.5,0.1-1,0.3-1.4,0.4c-2,0.6-4,1.2-5.7,2.6c-1.8,1.4-1.8,3.3,0,4.6    c1.1,0.8,2.4,1.4,3.7,1.8c5.5,1.7,11.2,2.2,17,2.3c6.9,0.2,13.8-0.2,20.6-1.8c1.3-0.3,2.6-0.7,3.8-1.2c1-0.5,1.9-1.1,2.7-1.9    c0.9-0.9,0.9-2.2-0.1-3.1c-1-0.9-2.1-1.7-3.2-2.2C91.5,22.2,89.9,21.8,88.4,21.3z" id="svg_9"/>
		<path class="st3" d="M59.6,23.7c-0.7,0.4-1.4,0.7-2,1.2c-1.1,0.8-1.1,1.8-0.1,2.6c0.6,0.5,1.2,0.8,1.8,1.1c0,0.1-0.1,0.2-0.1,0.3    c-1.2-0.6-2.5-1-3.6-1.7c-0.9-0.5-0.9-1.5,0-2c1.2-0.7,2.6-1.2,3.8-1.7C59.6,23.5,59.6,23.6,59.6,23.7z" id="svg_10"/>
		<path class="st3" d="M84.4,28.6c0.6-0.4,1.3-0.7,1.9-1.2c0.9-0.7,0.9-1.7,0-2.4c-0.6-0.5-1.3-0.8-1.9-1.3c1.4,0.3,2.7,0.6,3.8,1.6    c0.7,0.6,0.7,1.4-0.2,1.9c-1.1,0.7-2.4,1.1-3.5,1.6C84.5,28.8,84.4,28.7,84.4,28.6z" id="svg_11"/>
		<path class="st2" d="M72.3,25.9c1.5-1.8,3-3.6,4.6-5.3c0.2-0.3,0.6-0.4,0.9-0.6c2.5-0.8,4.8-1.9,6.7-3.6c0.7-0.6,1.3-1.4,1.7-2.2    c0.5-1.2-0.2-2.1-1.4-2c-0.7,0.1-1.4,0.3-2.1,0.6c-2.8,1.6-4.7,4-6.6,6.6c-0.2,0.2-0.4,0.6-0.6,0.6c-1,0.1-2.1,0-3.1,0    c-0.1-0.1-0.1-0.1-0.2-0.2c1.8-2.2,3.5-4.5,5.4-6.7c0.8-0.9,1.9-1.5,3.1-1.7c0.1,0,0.2-0.1,0.4-0.4c-0.6,0.1-1,0.1-1.3,0.2    c-1.6,0.3-2.9,1.2-4,2.4c-1.4,1.6-2.8,3.3-4.1,5.1c-0.8,1.1-1.6,1.8-2.9,1.4c-0.1,0-0.2,0-0.3,0c0,0,0,0.1,0,0.1l1.7,0.2    c0,0.1,0.1,0.2,0.1,0.3c-1,0.8-1.9,1.8-2.9,2.5c-1.1,0.8-2.4,0.9-3.7,0.7c0.7,0.2,1.5,0.3,2.2,0.2c2.2-0.3,3.9-1.5,5.5-3.1    c0.2-0.2,0.5-0.6,0.8-0.6c1-0.1,2,0,3.2,0c-1.2,1.7-2.3,3.1-3.3,4.6c-0.5,0.8-1.1,0.9-2,0.7c-1.3-0.3-2.6-0.5-4-0.5    c-1,0-1.6,0.6-1.5,1.5c0.1,1,0.8,1.1,1.5,1.1c1,0,2.2,0.1,3.1-0.4c1.6-0.8,3.1-0.4,4.7,0c0.4,0.1,0.9,0.2,1.3,0.3    c1.1,0.1,2.1,0.3,3.2,0.3c1.4,0,2.6-0.9,3-1.9c-1.8,1.1-6.3,1.1-9.4-0.2C72.2,26,72.2,25.9,72.3,25.9z M65.9,25.9    c1.2,0,2.3,0.2,3.4,0.4c0.3,0,0.7,0.2,1,0.3c-1.5,0.8-3,1.2-4.6,0.9c-0.3-0.1-0.5-0.5-0.7-0.8C65.3,26.4,65.6,25.9,65.9,25.9z     M77.6,19.6c1.7-2.4,3.2-4.9,5.6-6.6c0.4-0.3,1-0.5,1.5-0.6c1-0.1,1.5,0.6,1.3,1.6c-0.1,0.3-0.2,0.5-0.3,0.7    C83.6,17.4,80.7,18.6,77.6,19.6z" id="svg_12"/>
		<path class="st2" d="M28,49.7c-1.3,0-2.6,0-3.9,0c-1.4,0-2.7,0-4.1,0v-0.5c0.8,0.1,1.4-0.2,1.4-1.2v-8.9c0-1.2-0.6-1.2-1.4-1.3    v-0.5c0.7,0,1.4,0,2.1,0c0.7,0,1.4,0,2.2,0v0.5c-0.8,0-1.4,0-1.4,1.3v8.1c0,1.3,0.2,1.8,2.4,1.8c1.8,0,2.4-0.5,2.9-2.2l0.3,0.1    L28,49.7z" id="svg_13"/>
		<path class="st2" d="M36,49c-0.4,0.5-0.9,0.9-1.5,0.9c-0.6,0-0.9-0.7-1-1.3c-0.7,0.8-1.4,1.3-2.4,1.3c-1,0-1.7-0.8-1.7-1.7    c0.1-1.4,0.7-1.7,4-3v-1.2c0-1-0.5-1.5-1.5-1.5c-0.7,0-1.1,0.4-1.2,1.2c0,0.5-0.5,0.7-0.9,0.7c-0.2,0-0.3-0.2-0.3-0.4    c0-0.9,0.7-1.4,1.8-2c0.5-0.3,0.8-0.6,1.4-0.6c0.7,0,1.9,0.5,1.9,1.5V48c0,0.7,0.2,1,0.6,1c0.2,0,0.4-0.1,0.6-0.3L36,49z     M33.5,45.8c-0.8,0.3-2.8,0.8-2.8,2.1c0,0.7,0.5,1.3,1.1,1.3c0.7,0,1.2-0.5,1.7-1V45.8z" id="svg_14"/>
		<path class="st2" d="M44.3,48c0,1.2,0.6,1.2,1.4,1.3v0.5c-0.8,0-1.5,0-2.2,0c-0.7,0-1.4,0-2.2,0v-0.5c1.3,0,1.5-0.3,1.5-2v-7.8    c0-1.4-0.2-1.5-1.5-1.6v-0.5c1.1,0,2.2,0,3.3,0c1.4,0,2.8,0,4.2,0l0.1,2.5L48.6,40c-0.2-1.5-0.8-2-2.5-2h-1.8v5h1.8    c1.3,0,1.4-0.2,1.6-1.5H48c0,0.3-0.1,1.3-0.1,1.9c0,0.6,0,1.4,0.1,1.9h-0.3c-0.2-1.2-0.2-1.6-1.6-1.6h-1.9V48z" id="svg_15"/>
		<path class="st2" d="M49.9,49.2h0.3c0.4,0,0.7,0,0.7-0.6v-9.8c0-1.1-0.2-1.2-0.8-1.4v-0.3c0.6-0.2,1.3-0.5,1.6-0.8    c0.2-0.1,0.3-0.2,0.3-0.2c0.1,0,0.1,0.1,0.1,0.2v12.1c0,0.6,0.3,0.6,0.8,0.6h0.3v0.5c-0.5,0-1.1,0-1.6,0c-0.6,0-1.1,0-1.7,0V49.2z    " id="svg_16"/>
		<path class="st2" d="M55.4,44.8c0,0.2,0,0.4,0,1c0.1,1.7,1,3,2.3,3c0.8,0,1.5-0.5,2.1-1.2L60,48c-0.7,1.1-1.6,2-2.8,2    c-2.4,0-2.9-2.7-2.9-3.8c0-3.4,2-4.5,3.1-4.5c1.2,0,2.6,0.9,2.6,2.8c0,0.1,0,0.2,0,0.3l-0.1,0.1H55.4z M58.1,44.3    c0.4,0,0.4-0.2,0.4-0.4c0-0.9-0.5-1.6-1.3-1.6c-0.9,0-1.6,0.8-1.8,2.1H58.1z" id="svg_17"/>
		<path class="st2" d="M67.6,48.7c0,0.3,0.2,0.3,0.4,0.3c0.2,0,0.4,0,0.6,0v0.4c-0.7,0.1-1.9,0.4-2.2,0.5l-0.1-0.1v-1.4    c-0.9,0.9-1.6,1.5-2.7,1.5c-0.8,0-1.7-0.6-1.7-2.1v-4.5c0-0.5-0.1-0.9-0.9-1v-0.3c0.6,0,1.8-0.1,2-0.1c0.2,0,0.2,0.1,0.2,0.5V47    c0,0.5,0,2,1.3,2c0.5,0,1.2-0.5,1.9-1.1v-4.7c0-0.4-0.7-0.5-1.3-0.7v-0.3c1.4-0.1,2.2-0.2,2.4-0.2c0.1,0,0.1,0.1,0.1,0.3V48.7z" id="svg_18"/>
		<path class="st2" d="M69.4,49.2h0.4c0.4,0,0.7,0,0.7-0.6v-4.9c0-0.5-0.6-0.6-0.8-0.8v-0.3c1.1-0.5,1.7-1,1.9-1    c0.1,0,0.1,0.1,0.1,0.2v1.6h0c0.4-0.7,1-1.8,2-1.8c0.4,0,0.9,0.3,0.9,0.9c0,0.5-0.3,0.9-0.7,0.9c-0.5,0-0.5-0.4-1-0.4    c-0.3,0-1.1,0.4-1.1,1.5v4.1c0,0.6,0.3,0.6,0.7,0.6h0.9v0.5c-0.8,0-1.5,0-2.2,0c-0.6,0-1.3,0-1.8,0V49.2z" id="svg_19"/>
		<path class="st2" d="M86.4,48.2c0,0.7,0.2,0.7,0.8,0.7h0.3v0.4h0c-0.2,0.1-0.6,0.2-1.1,0.4c-0.5,0.2-0.9,0.4-1,0.4    c-0.2,0-0.2-0.3-0.2-0.5v-0.8h0c-0.6,0.6-1.4,1.3-2.4,1.3c-1.8,0-2.9-1.8-2.9-3.8c0-2.4,1.7-4.5,3.8-4.5c0.5,0,1,0.1,1.4,0.3v-3.1    c0-1.1-0.2-1.2-0.8-1.4v-0.3c0.6-0.2,1.3-0.5,1.6-0.8c0.2-0.1,0.3-0.2,0.3-0.2c0.1,0,0.1,0.1,0.1,0.2V48.2z M85.2,43.8    c0-1.3-1-1.6-1.6-1.6c-1.1,0-2.3,0.9-2.3,3.3c0,1.9,1,3.4,2.4,3.4c0.5,0,1.5-0.4,1.5-1V43.8z" id="svg_20"/>
		<path class="st2" d="M95,48.7c0,0.3,0.2,0.3,0.4,0.3c0.2,0,0.4,0,0.6,0v0.4c-0.7,0.1-1.9,0.4-2.2,0.5l-0.1-0.1v-1.4    C92.8,49.3,92.1,50,91,50c-0.8,0-1.7-0.6-1.7-2.1v-4.5c0-0.5-0.1-0.9-0.9-1v-0.3c0.6,0,1.8-0.1,2-0.1c0.2,0,0.2,0.1,0.2,0.5V47    c0,0.5,0,2,1.3,2c0.5,0,1.2-0.5,1.9-1.1v-4.7c0-0.4-0.7-0.5-1.3-0.7v-0.3c1.4-0.1,2.2-0.2,2.4-0.2c0.1,0,0.1,0.1,0.1,0.3V48.7z" id="svg_21"/>
		<path class="st2" d="M109.2,49.7c-1.3,0-2.6,0-3.9,0c-1.4,0-2.7,0-4.1,0v-0.5c0.8,0.1,1.4-0.2,1.4-1.2v-8.9c0-1.2-0.6-1.2-1.4-1.3    v-0.5c0.7,0,1.4,0,2.1,0c0.7,0,1.4,0,2.2,0v0.5c-0.8,0-1.4,0-1.4,1.3v8.1c0,1.3,0.2,1.8,2.4,1.8c1.8,0,2.4-0.5,2.9-2.2l0.3,0.1    L109.2,49.7z" id="svg_22"/>
		<path class="st2" d="M117.2,49c-0.4,0.5-0.9,0.9-1.5,0.9c-0.6,0-0.9-0.7-1-1.3c-0.7,0.8-1.4,1.3-2.4,1.3c-1,0-1.7-0.8-1.7-1.7    c0.1-1.4,0.7-1.7,4-3v-1.2c0-1-0.5-1.5-1.5-1.5c-0.7,0-1.1,0.4-1.2,1.2c0,0.5-0.5,0.7-0.9,0.7c-0.2,0-0.3-0.2-0.3-0.4    c0-0.9,0.7-1.4,1.8-2c0.5-0.3,0.8-0.6,1.4-0.6c0.7,0,1.9,0.5,1.9,1.5V48c0,0.7,0.2,1,0.6,1c0.2,0,0.4-0.1,0.6-0.3L117.2,49z     M114.8,45.8c-0.8,0.3-2.8,0.8-2.8,2.1c0,0.7,0.5,1.3,1.1,1.3c0.7,0,1.2-0.5,1.7-1V45.8z" id="svg_23"/>
		<path class="st2" d="M124.2,48.1c-0.8,1-1.8,1.8-3,1.8c-1.6,0-3.1-1.8-3.1-3.6c0-2.5,1.6-4.6,3.8-4.6c0.8,0,2.1,0.3,2.1,1.2    c0,0.4-0.2,0.8-0.6,0.8c-0.6,0-0.6-1.4-2.1-1.4c-1.3,0-2,1.7-2,3c0,1.8,1,3.4,2.7,3.4c0.8,0,1.3-0.3,1.9-0.8L124.2,48.1z" id="svg_24"/>
		<polygon class="st3" points="59.1,55.4 59.4,56.4 60.6,56.5 59.7,57.2 60,58.3 59.1,57.6 58.1,58.3 58.4,57.2 57.5,56.5     58.7,56.5 59.1,55.4   " id="svg_25"/>
		<polygon class="st3" points="67.7,55.4 68.1,56.4 69.3,56.5 68.4,57.2 68.7,58.3 67.7,57.6 66.8,58.3 67.1,57.2 66.2,56.5     67.4,56.5 67.7,55.4   " id="svg_26"/>
		<polygon class="st3" points="76.4,55.4 76.8,56.4 78,56.5 77.1,57.2 77.4,58.3 76.4,57.6 75.5,58.3 75.8,57.2 74.9,56.5 76,56.5     76.4,55.4   " id="svg_27"/>
		<polygon class="st3" points="85.1,55.4 85.5,56.4 86.7,56.5 85.7,57.2 86.1,58.3 85.1,57.6 84.1,58.3 84.5,57.2 83.6,56.5     84.7,56.5 85.1,55.4   " id="svg_28"/>
	</g>
</g></g></svg>