<?xml version="1.0" encoding="utf-8"?>
<!-- Generator: Adobe Illustrator 19.1.1, SVG Export Plug-In . SVG Version: 6.00 Build 0)  -->
<svg version="1.1" id="Layer_1" xmlns="http://www.w3.org/2000/svg" xmlns:xlink="http://www.w3.org/1999/xlink" x="0px" y="0px"
	 viewBox="194.5 384.5 25 25" style="enable-background:new 194.5 384.5 25 25;" xml:space="preserve">
<style type="text/css">
	.st0{fill:#D2BD7F;}
</style>
<g>
	<g>
		<path class="st0" d="M219.3,385c0-0.1-0.2-0.3-0.3-0.3c-0.7-0.2-1.3-0.2-2-0.1c-1.7,0.2-3.3,1-4.6,2.3c-1.3,1.3-2.1,2.9-2.3,4.6
			c-0.1,0.6,0,1.2,0.1,1.8c0,0,0,0,0,0c-1.8,2.1-3,4.4-3.8,6.7c-0.7-2.7-1.7-5.1-3.1-7.3c-2-3.3-4.8-6-8.2-8.1
			c-0.2-0.1-0.4-0.1-0.5,0.1s-0.1,0.4,0.1,0.5c4.1,3.8,7,8.2,8.7,13.1c0.7,2.1,1.6,5.4,1.6,10.8c0,0.2,0.2,0.4,0.4,0.4h1.7
			c0.2,0,0.4-0.2,0.4-0.4c0-0.3,0-0.6,0-0.9c0-4,0-9.1,3.5-14.3c0.3,0.1,0.7,0.1,1,0.1c0.2,0,0.5,0,0.7,0c1.7-0.2,3.3-1,4.6-2.3
			c1.3-1.3,2.1-2.9,2.3-4.6C219.5,386.3,219.5,385.6,219.3,385z M204.1,398c-1.2-3.5-3-6.8-5.5-9.8c1.5,1.4,2.9,3.1,4,4.9
			c1.5,2.5,2.6,5.3,3.3,8.4c-0.2,0.8-0.4,1.5-0.5,2.3C205.1,402,204.7,400,204.1,398z M206.6,408.2c0,0.2,0,0.3,0,0.5h-0.9
			c0-2.7,0.4-6,1.8-9.3C206.6,402.6,206.6,405.7,206.6,408.2z M218.7,386.9c-0.4,3.1-3.1,5.8-6.2,6.2c-0.4,0-0.7,0-1.1,0
			c1.3-1.8,3.1-3.6,5.4-5.3c0.2-0.1,0.2-0.4,0.1-0.6c-0.1-0.2-0.4-0.2-0.6-0.1c-2.2,1.6-4,3.4-5.4,5.3c0-0.3,0-0.6,0-0.9
			c0.4-3.1,3.1-5.8,6.2-6.2c0.5-0.1,1,0,1.5,0.1C218.7,385.9,218.7,386.4,218.7,386.9z"/>
	</g>
</g>
</svg>
