<?xml version="1.0" encoding="utf-8"?>
<!-- Generator: Adobe Illustrator 19.1.1, SVG Export Plug-In . SVG Version: 6.00 Build 0)  -->
<svg version="1.1" id="Capa_1" xmlns="http://www.w3.org/2000/svg" xmlns:xlink="http://www.w3.org/1999/xlink" x="0px" y="0px"
	 viewBox="160.8 385.6 25 25" style="enable-background:new 160.8 385.6 25 25;" xml:space="preserve">
<style type="text/css">
	.st0{fill:#D2BD7F;}
</style>
<g>
	<path class="st0" d="M183.3,408.9c-1.3-1.3-2-3-2.1-4.8c1.1-0.2,1.9-1.1,1.9-2.2c0-0.1,0-0.2,0-0.2l-0.2-2.4c0,0-0.5-4.7-0.5-4.7
		c0,0-0.5-4.7-0.5-4.7c0,0-0.2-2.4-0.2-2.4c-0.1-0.9-0.8-1.6-1.8-1.6c-0.9,0-1.7,0.7-1.8,1.6l-0.5,4.7c0,0-0.5,4.7-0.5,4.7
		c0,0-0.5,4.7-0.5,4.7c0,0.1,0,0.2,0,0.2c0,1.1,0.8,2,1.9,2.2c-0.1,1.8-0.8,3.5-2.1,4.8c-0.2,0.2-0.2,0.4,0,0.6
		c0.1,0.1,0.2,0.1,0.3,0.1c0.1,0,0.2,0,0.3-0.1c1.4-1.4,2.2-3.3,2.3-5.3h0.2v6c0,0.2,0.2,0.4,0.4,0.4c0.2,0,0.4-0.2,0.4-0.4v-6h0.2
		c0.1,2,0.9,3.9,2.3,5.3c0.1,0.1,0.2,0.1,0.3,0.1c0.1,0,0.2,0,0.3-0.1C183.4,409.3,183.4,409,183.3,408.9z M178.9,403.4
		c-0.8,0-1.5-0.7-1.5-1.5c0-0.1,0-0.1,0-0.2l0.4-4.4h2c0.2,0,0.4-0.2,0.4-0.4s-0.2-0.4-0.4-0.4h-1.9l0.4-3.9h1.8
		c0.2,0,0.4-0.2,0.4-0.4s-0.2-0.4-0.4-0.4h-1.7l0.4-4.3c0.1-0.5,0.5-0.9,1-0.9c0.4,0,0.7,0.2,0.8,0.5h-0.1c-0.2,0-0.4,0.2-0.4,0.4
		s0.2,0.4,0.4,0.4h0.3l0.2,1.6h-1.2c-0.2,0-0.4,0.2-0.4,0.4s0.2,0.4,0.4,0.4h1.3l0.4,3.9h-1.6c-0.2,0-0.4,0.2-0.4,0.4
		s0.2,0.4,0.4,0.4h1.7l0.4,3.9h-0.5c-0.2,0-0.4,0.2-0.4,0.4s0.2,0.4,0.4,0.4h0.6l0.2,2c0,0,0,0.1,0,0.2c0,0.8-0.7,1.5-1.5,1.5
		L178.9,403.4L178.9,403.4z"/>
	<path class="st0" d="M181.4,401.7c0-0.2-0.2-0.4-0.4-0.4h-2.5c-0.2,0-0.4,0.2-0.4,0.4c0,0.2,0.2,0.4,0.4,0.4h2.5
		C181.3,402.1,181.4,401.9,181.4,401.7z"/>
	<path class="st0" d="M178.8,399.7h1c0.2,0,0.4-0.2,0.4-0.4c0-0.2-0.2-0.4-0.4-0.4h-1c-0.2,0-0.4,0.2-0.4,0.4
		C178.4,399.6,178.6,399.7,178.8,399.7z"/>
	<path class="st0" d="M174.3,393.9c0-1.2-0.4-2.4-1.3-3.3c0.1-0.3,0.1-0.6,0.1-0.9c0-2.1-1.7-3.8-3.8-3.8c-2.1,0-3.8,1.7-3.8,3.8
		c0,0.3,0,0.6,0.1,0.9c-0.8,0.9-1.3,2.1-1.3,3.3c0,0.2,0,0.4,0,0.6c-0.8,1-1.2,2.3-1.2,3.6c0,3.2,2.5,5.9,5.7,6.1v5.8
		c0,0.2,0.2,0.4,0.4,0.4s0.4-0.2,0.4-0.4v-5.8c3.2-0.2,5.7-2.8,5.7-6.1c0-1.3-0.4-2.6-1.2-3.6C174.3,394.3,174.3,394.1,174.3,393.9z
		 M169.4,386.7c1.7,0,3,1.3,3,3c0,0.3,0,0.5-0.1,0.8l-2.5,2.5v-3.3c0-0.2-0.2-0.4-0.4-0.4c-0.2,0-0.4,0.2-0.4,0.4v3.3l-0.4-0.4
		c-0.2-0.2-0.4-0.2-0.6,0c-0.2,0.2-0.2,0.4,0,0.6l0.9,0.9v4l-3.7-3.7c0-0.2,0-0.3,0-0.5c0-1,0.3-1.9,0.9-2.6l0.8,0.8
		c0.1,0.1,0.2,0.1,0.3,0.1c0.1,0,0.2,0,0.3-0.1c0.2-0.2,0.2-0.4,0-0.6l-1-1c-0.1-0.3-0.1-0.5-0.1-0.8
		C166.4,388.1,167.7,386.7,169.4,386.7z M164.9,395.2l4,4v4.1c-2.7-0.2-4.9-2.5-4.9-5.3C164.1,397,164.4,396,164.9,395.2z
		 M169.8,399.2l2.4-2.4c0.2-0.2,0.2-0.4,0-0.6c-0.2-0.2-0.4-0.2-0.6,0l-1.8,1.8v-4l2.8-2.8c0.6,0.7,0.9,1.7,0.9,2.6
		c0,0.2,0,0.3,0,0.5l-0.8,0.8c-0.2,0.2-0.2,0.4,0,0.6c0.1,0.1,0.2,0.1,0.3,0.1s0.2,0,0.3-0.1l0.6-0.6c0.6,0.9,0.9,1.9,0.9,2.9
		c0,2.8-2.2,5.1-4.9,5.3L169.8,399.2L169.8,399.2z"/>
</g>
</svg>
